<svg xmlns="http://www.w3.org/2000/svg" xmlns:xlink="http://www.w3.org/1999/xlink" width="500" zoomAndPan="magnify" viewBox="0 0 375 374.999991" height="500" preserveAspectRatio="xMidYMid meet" version="1.0"><defs><g/></defs><g fill="#171616" fill-opacity="1"><g transform="translate(84.973512, 228.768911)"><g><path d="M 1.34375 0 L 1.34375 -32.140625 L 19.1875 -32.140625 L 17.84375 -34.21875 L 8.796875 -34.21875 C 6.023438 -36.832031 4.066406 -39.953125 2.921875 -43.578125 C 1.785156 -47.203125 1.21875 -50.847656 1.21875 -54.515625 C 1.21875 -65.429688 4.5 -73.332031 11.0625 -78.21875 C 17.625 -83.113281 27.789062 -85.5625 41.5625 -85.5625 L 87.515625 -85.5625 L 87.515625 -53.171875 L 46.203125 -53.171875 C 43.265625 -53.171875 40.878906 -52.457031 39.046875 -51.03125 C 37.210938 -49.601562 35.945312 -47.847656 35.25 -45.765625 C 34.5625 -43.691406 34.484375 -41.59375 35.015625 -39.46875 C 35.546875 -37.351562 36.726562 -35.582031 38.5625 -34.15625 C 40.394531 -32.738281 42.898438 -32.03125 46.078125 -32.03125 C 49.335938 -32.03125 51.78125 -32.882812 53.40625 -34.59375 C 55.039062 -36.300781 55.898438 -38.316406 55.984375 -40.640625 C 56.066406 -42.960938 55.472656 -45.140625 54.203125 -47.171875 C 52.941406 -49.210938 51.09375 -50.519531 48.65625 -51.09375 L 77.625 -51.09375 C 81.289062 -48.320312 83.957031 -45 85.625 -41.125 C 87.289062 -37.257812 88.125 -33.289062 88.125 -29.21875 C 88.125 -21.882812 86.515625 -16.097656 83.296875 -11.859375 C 80.078125 -7.617188 75.535156 -4.582031 69.671875 -2.75 C 63.804688 -0.914062 56.800781 0 48.65625 0 Z M 1.34375 0 "/></g></g></g><path stroke-linecap="butt" transform="matrix(0.75, 0, 0, 0.75, 143.193393, 113.047617)" fill="none" stroke-linejoin="miter" d="M 29.111936 83.066724 L 27.31506 83.066724 L 35.252561 103.462559 L 35.252561 123.999018 L 3.820267 123.999018 L 3.820267 40.941721 L 38.466103 40.941721 L 55.445271 79.847974 L 72.41923 40.941721 L 106.924441 40.941721 L 106.924441 123.999018 L 75.60673 123.999018 L 75.60673 103.462559 L 83.575481 83.066724 L 81.778606 83.066724 L 69.929647 113.571934 L 40.960895 113.571934 Z M 29.111936 83.066724 " stroke="#fff9f9" stroke-width="8.900025" stroke-opacity="1" stroke-miterlimit="4"/><g fill="#171616" fill-opacity="1"><g transform="translate(145.080112, 206.047611)"><g><path d="M 19.9375 -30.703125 L 18.59375 -30.703125 L 24.5625 -15.390625 L 24.5625 0 L 0.984375 0 L 0.984375 -62.296875 L 26.96875 -62.296875 L 39.6875 -33.109375 L 52.421875 -62.296875 L 78.3125 -62.296875 L 78.3125 0 L 54.828125 0 L 54.828125 -15.390625 L 60.78125 -30.703125 L 59.453125 -30.703125 L 50.546875 -7.828125 L 28.84375 -7.828125 Z M 19.9375 -30.703125 "/></g></g></g><path stroke-linecap="butt" transform="matrix(0.75, 0, 0, 0.75, 182.454163, 138.025978)" fill="none" stroke-linejoin="miter" d="M 36.326743 40.944532 L 67.180912 40.944532 L 67.180912 124.001829 L 36.326743 124.001829 Z M 36.326743 40.944532 " stroke="#fff9f9" stroke-width="8.900025" stroke-opacity="1" stroke-miterlimit="4"/><g fill="#171616" fill-opacity="1"><g transform="translate(208.80963, 231.025972)"><g><path d="M 0.890625 0 L 0.890625 -62.296875 L 24.03125 -62.296875 L 24.03125 0 Z M 0.890625 0 "/></g></g></g><g fill="#171616" fill-opacity="1"><g transform="translate(245.294491, 231.025972)"><g><path d="M 0.984375 -62.296875 L 24.125 -62.296875 L 24.125 -22.515625 L 46.90625 -22.515625 L 46.90625 0 L 0.984375 0 Z M 0.984375 -62.296875 "/></g></g></g><g fill="#171616" fill-opacity="1"><g transform="translate(271.824697, 166.507391)"><g><path d="M 8.828125 2.6875 L 1.046875 0.3125 L 4.59375 -11.359375 L 12.375 -8.984375 L 11.78125 -7.015625 L 6.203125 -8.71875 L 5.328125 -5.84375 L 10.328125 -4.328125 L 9.734375 -2.375 L 4.734375 -3.890625 L 3.84375 -0.984375 L 9.421875 0.71875 Z M 8.828125 2.6875 "/></g></g></g><g fill="#222222" fill-opacity="1"><g transform="translate(273.271564, 243.365216)"><g><path d="M 3.59375 -2.40625 L 2.734375 -4.984375 L 2.71875 -4.984375 L 1.765625 -2.40625 Z M 1.53125 -1.703125 L 0.90625 0 L 0.09375 0 L 2.3125 -5.859375 L 3.203125 -5.859375 L 5.328125 0 L 4.46875 0 L 3.875 -1.703125 Z M 1.53125 -1.703125 "/></g></g></g><g fill="#222222" fill-opacity="1"><g transform="translate(278.497116, 243.365216)"><g><path d="M 1.25 0 L 0.53125 0 L 0.53125 -5.859375 L 1.25 -5.859375 Z M 1.25 0 "/></g></g></g><g fill="#222222" fill-opacity="1"><g transform="translate(280.07472, 243.365216)"><g><path d="M 3.21875 -4.28125 L 4 -4.28125 L 2.375 0 L 1.609375 0 L 0.046875 -4.28125 L 0.875 -4.28125 L 2 -0.796875 L 2.015625 -0.796875 Z M 3.21875 -4.28125 "/></g></g></g><g fill="#222222" fill-opacity="1"><g transform="translate(283.904882, 243.365216)"><g><path d="M 0.53125 -5.046875 L 0.53125 -5.859375 L 1.25 -5.859375 L 1.25 -5.046875 Z M 1.25 0 L 0.53125 0 L 0.53125 -4.28125 L 1.25 -4.28125 Z M 1.25 0 "/></g></g></g><g fill="#222222" fill-opacity="1"><g transform="translate(285.482487, 243.365216)"><g><path d="M 4.015625 0 L 3.296875 0 L 3.296875 -2.625 C 3.296875 -3.03125 3.222656 -3.316406 3.078125 -3.484375 C 2.941406 -3.660156 2.710938 -3.75 2.390625 -3.75 C 2.066406 -3.75 1.796875 -3.625 1.578125 -3.375 C 1.359375 -3.132812 1.25 -2.785156 1.25 -2.328125 L 1.25 0 L 0.53125 0 L 0.53125 -4.28125 L 1.21875 -4.28125 L 1.21875 -3.671875 L 1.234375 -3.671875 C 1.566406 -4.148438 2 -4.390625 2.53125 -4.390625 C 3.007812 -4.390625 3.375 -4.257812 3.625 -4 C 3.882812 -3.75 4.015625 -3.382812 4.015625 -2.90625 Z M 4.015625 0 "/></g></g></g><g fill="#222222" fill-opacity="1"><g transform="translate(289.767147, 243.365216)"><g><path d="M 3.46875 -2.796875 C 3.46875 -3.566406 3.363281 -4.140625 3.15625 -4.515625 C 2.957031 -4.898438 2.660156 -5.09375 2.265625 -5.09375 C 1.878906 -5.09375 1.582031 -4.898438 1.375 -4.515625 C 1.164062 -4.140625 1.0625 -3.566406 1.0625 -2.796875 C 1.0625 -2.046875 1.164062 -1.472656 1.375 -1.078125 C 1.582031 -0.679688 1.878906 -0.484375 2.265625 -0.484375 C 2.660156 -0.484375 2.957031 -0.675781 3.15625 -1.0625 C 3.363281 -1.445312 3.46875 -2.023438 3.46875 -2.796875 Z M 4.234375 -2.796875 C 4.234375 -1.847656 4.0625 -1.117188 3.71875 -0.609375 C 3.382812 -0.0976562 2.898438 0.15625 2.265625 0.15625 C 1.609375 0.15625 1.113281 -0.109375 0.78125 -0.640625 C 0.457031 -1.171875 0.296875 -1.890625 0.296875 -2.796875 C 0.296875 -3.722656 0.460938 -4.445312 0.796875 -4.96875 C 1.140625 -5.488281 1.628906 -5.75 2.265625 -5.75 C 2.898438 -5.75 3.382812 -5.488281 3.71875 -4.96875 C 4.0625 -4.445312 4.234375 -3.722656 4.234375 -2.796875 Z M 4.234375 -2.796875 "/></g></g></g></svg>